<svg id="visual" viewBox="0 0 900 200" width="900" height="200" xmlns="http://www.w3.org/2000/svg" xmlns:xlink="http://www.w3.org/1999/xlink" version="1.1"><path d="M0 25L21.5 25.3C43 25.7 86 26.3 128.8 27C171.7 27.7 214.3 28.3 257.2 25.7C300 23 343 17 385.8 14.7C428.7 12.3 471.3 13.7 514.2 16.3C557 19 600 23 642.8 25.3C685.7 27.7 728.3 28.3 771.2 28C814 27.7 857 26.3 878.5 25.7L900 25L900 0L878.5 0C857 0 814 0 771.2 0C728.3 0 685.7 0 642.8 0C600 0 557 0 514.2 0C471.3 0 428.7 0 385.8 0C343 0 300 0 257.2 0C214.3 0 171.7 0 128.8 0C86 0 43 0 21.5 0L0 0Z" fill="#e6edf8"></path><path d="M0 31L21.5 32.3C43 33.7 86 36.3 128.8 37.7C171.7 39 214.3 39 257.2 37.7C300 36.3 343 33.7 385.8 32.7C428.7 31.7 471.3 32.3 514.2 34.7C557 37 600 41 642.8 42.3C685.7 43.7 728.3 42.3 771.2 41.7C814 41 857 41 878.5 41L900 41L900 23L878.5 23.7C857 24.3 814 25.7 771.2 26C728.3 26.3 685.7 25.7 642.8 23.3C600 21 557 17 514.2 14.3C471.3 11.7 428.7 10.3 385.8 12.7C343 15 300 21 257.2 23.7C214.3 26.3 171.7 25.7 128.8 25C86 24.3 43 23.7 21.5 23.3L0 23Z" fill="#cad0db"></path><path d="M0 85L21.5 86C43 87 86 89 128.8 90C171.7 91 214.3 91 257.2 91.7C300 92.3 343 93.7 385.8 88.7C428.7 83.7 471.3 72.3 514.2 74.3C557 76.3 600 91.7 642.8 95C685.7 98.3 728.3 89.7 771.2 86C814 82.3 857 83.7 878.5 84.3L900 85L900 39L878.5 39C857 39 814 39 771.2 39.7C728.3 40.3 685.7 41.7 642.8 40.3C600 39 557 35 514.2 32.7C471.3 30.3 428.7 29.7 385.8 30.7C343 31.7 300 34.3 257.2 35.7C214.3 37 171.7 37 128.8 35.7C86 34.3 43 31.7 21.5 30.3L0 29Z" fill="#b0b4bf"></path><path d="M0 103L21.5 103C43 103 86 103 128.8 104C171.7 105 214.3 107 257.2 107.3C300 107.7 343 106.3 385.8 100C428.7 93.7 471.3 82.3 514.2 85.3C557 88.3 600 105.7 642.8 109C685.7 112.3 728.3 101.7 771.2 97C814 92.3 857 93.7 878.5 94.3L900 95L900 83L878.5 82.3C857 81.7 814 80.3 771.2 84C728.3 87.7 685.7 96.3 642.8 93C600 89.7 557 74.3 514.2 72.3C471.3 70.3 428.7 81.7 385.8 86.7C343 91.7 300 90.3 257.2 89.7C214.3 89 171.7 89 128.8 88C86 87 43 85 21.5 84L0 83Z" fill="#9599a4"></path><path d="M0 111L21.5 112C43 113 86 115 128.8 117.3C171.7 119.7 214.3 122.3 257.2 122.7C300 123 343 121 385.8 116C428.7 111 471.3 103 514.2 107C557 111 600 127 642.8 128.3C685.7 129.7 728.3 116.3 771.2 112C814 107.7 857 112.3 878.5 114.7L900 117L900 93L878.5 92.3C857 91.7 814 90.3 771.2 95C728.3 99.7 685.7 110.3 642.8 107C600 103.7 557 86.3 514.2 83.3C471.3 80.3 428.7 91.7 385.8 98C343 104.3 300 105.7 257.2 105.3C214.3 105 171.7 103 128.8 102C86 101 43 101 21.5 101L0 101Z" fill="#7c7f89"></path><path d="M0 117L21.5 119C43 121 86 125 128.8 129C171.7 133 214.3 137 257.2 136.7C300 136.3 343 131.7 385.8 125.7C428.7 119.7 471.3 112.3 514.2 117.3C557 122.3 600 139.7 642.8 140.7C685.7 141.7 728.3 126.3 771.2 122C814 117.7 857 124.3 878.5 127.7L900 131L900 115L878.5 112.7C857 110.3 814 105.7 771.2 110C728.3 114.3 685.7 127.7 642.8 126.3C600 125 557 109 514.2 105C471.3 101 428.7 109 385.8 114C343 119 300 121 257.2 120.7C214.3 120.3 171.7 117.7 128.8 115.3C86 113 43 111 21.5 110L0 109Z" fill="#63666f"></path><path d="M0 149L21.5 150.3C43 151.7 86 154.3 128.8 157.3C171.7 160.3 214.3 163.7 257.2 163.7C300 163.7 343 160.3 385.8 158.3C428.7 156.3 471.3 155.7 514.2 159.3C557 163 600 171 642.8 173.7C685.7 176.3 728.3 173.7 771.2 173C814 172.3 857 173.7 878.5 174.3L900 175L900 129L878.5 125.7C857 122.3 814 115.7 771.2 120C728.3 124.3 685.7 139.7 642.8 138.7C600 137.7 557 120.3 514.2 115.3C471.3 110.3 428.7 117.7 385.8 123.7C343 129.7 300 134.3 257.2 134.7C214.3 135 171.7 131 128.8 127C86 123 43 119 21.5 117L0 115Z" fill="#4c4d56"></path><path d="M0 183L21.5 183.3C43 183.7 86 184.3 128.8 186C171.7 187.7 214.3 190.3 257.2 191.7C300 193 343 193 385.8 191.7C428.7 190.3 471.3 187.7 514.2 187.7C557 187.7 600 190.3 642.8 191C685.7 191.7 728.3 190.3 771.2 189.7C814 189 857 189 878.5 189L900 189L900 173L878.5 172.3C857 171.7 814 170.3 771.2 171C728.3 171.7 685.7 174.3 642.8 171.7C600 169 557 161 514.2 157.3C471.3 153.7 428.7 154.3 385.8 156.3C343 158.3 300 161.7 257.2 161.7C214.3 161.7 171.7 158.3 128.8 155.3C86 152.3 43 149.7 21.5 148.3L0 147Z" fill="#35373e"></path><path d="M0 201L21.5 201C43 201 86 201 128.8 201C171.7 201 214.3 201 257.2 201C300 201 343 201 385.8 201C428.7 201 471.3 201 514.2 201C557 201 600 201 642.8 201C685.7 201 728.3 201 771.2 201C814 201 857 201 878.5 201L900 201L900 187L878.5 187C857 187 814 187 771.2 187.7C728.3 188.3 685.7 189.7 642.8 189C600 188.3 557 185.7 514.2 185.7C471.3 185.7 428.7 188.3 385.8 189.7C343 191 300 191 257.2 189.7C214.3 188.3 171.7 185.7 128.8 184C86 182.3 43 181.7 21.5 181.3L0 181Z" fill="#202128"></path></svg>