<svg id="visual" viewBox="0 0 900 100" width="900" height="100" xmlns="http://www.w3.org/2000/svg" xmlns:xlink="http://www.w3.org/1999/xlink" version="1.1"><path d="M0 13L21.5 13.2C43 13.3 86 13.7 128.8 14C171.7 14.3 214.3 14.7 257.2 13.3C300 12 343 9 385.8 7.8C428.7 6.7 471.3 7.3 514.2 8.7C557 10 600 12 642.8 13.2C685.7 14.3 728.3 14.7 771.2 14.5C814 14.3 857 13.7 878.5 13.3L900 13L900 0L878.5 0C857 0 814 0 771.2 0C728.3 0 685.7 0 642.8 0C600 0 557 0 514.2 0C471.3 0 428.7 0 385.8 0C343 0 300 0 257.2 0C214.3 0 171.7 0 128.8 0C86 0 43 0 21.5 0L0 0Z" fill="#e6edf8"></path><path d="M0 16L21.5 16.7C43 17.3 86 18.7 128.8 19.3C171.7 20 214.3 20 257.2 19.3C300 18.7 343 17.3 385.8 16.8C428.7 16.3 471.3 16.7 514.2 17.8C557 19 600 21 642.8 21.7C685.7 22.3 728.3 21.7 771.2 21.3C814 21 857 21 878.5 21L900 21L900 11L878.5 11.3C857 11.7 814 12.3 771.2 12.5C728.3 12.7 685.7 12.3 642.8 11.2C600 10 557 8 514.2 6.7C471.3 5.3 428.7 4.7 385.8 5.8C343 7 300 10 257.2 11.3C214.3 12.7 171.7 12.3 128.8 12C86 11.7 43 11.3 21.5 11.2L0 11Z" fill="#cad0db"></path><path d="M0 43L21.5 43.5C43 44 86 45 128.8 45.5C171.7 46 214.3 46 257.2 46.3C300 46.7 343 47.3 385.8 44.8C428.7 42.3 471.3 36.7 514.2 37.7C557 38.7 600 46.3 642.8 48C685.7 49.7 728.3 45.3 771.2 43.5C814 41.7 857 42.3 878.5 42.7L900 43L900 19L878.5 19C857 19 814 19 771.2 19.3C728.3 19.7 685.7 20.3 642.8 19.7C600 19 557 17 514.2 15.8C471.3 14.7 428.7 14.3 385.8 14.8C343 15.3 300 16.7 257.2 17.3C214.3 18 171.7 18 128.8 17.3C86 16.7 43 15.3 21.5 14.7L0 14Z" fill="#b0b4bf"></path><path d="M0 52L21.5 52C43 52 86 52 128.8 52.5C171.7 53 214.3 54 257.2 54.2C300 54.3 343 53.7 385.8 50.5C428.7 47.3 471.3 41.7 514.2 43.2C557 44.7 600 53.3 642.8 55C685.7 56.7 728.3 51.3 771.2 49C814 46.7 857 47.3 878.5 47.7L900 48L900 41L878.5 40.7C857 40.3 814 39.7 771.2 41.5C728.3 43.3 685.7 47.7 642.8 46C600 44.3 557 36.7 514.2 35.7C471.3 34.7 428.7 40.3 385.8 42.8C343 45.3 300 44.7 257.2 44.3C214.3 44 171.7 44 128.8 43.5C86 43 43 42 21.5 41.5L0 41Z" fill="#9599a4"></path><path d="M0 56L21.5 56.5C43 57 86 58 128.8 59.2C171.7 60.3 214.3 61.7 257.2 61.8C300 62 343 61 385.8 58.5C428.7 56 471.3 52 514.2 54C557 56 600 64 642.8 64.7C685.7 65.3 728.3 58.7 771.2 56.5C814 54.3 857 56.7 878.5 57.8L900 59L900 46L878.5 45.7C857 45.3 814 44.7 771.2 47C728.3 49.3 685.7 54.7 642.8 53C600 51.3 557 42.7 514.2 41.2C471.3 39.7 428.7 45.3 385.8 48.5C343 51.7 300 52.3 257.2 52.2C214.3 52 171.7 51 128.8 50.5C86 50 43 50 21.5 50L0 50Z" fill="#7c7f89"></path><path d="M0 59L21.5 60C43 61 86 63 128.8 65C171.7 67 214.3 69 257.2 68.8C300 68.7 343 66.3 385.8 63.3C428.7 60.3 471.3 56.7 514.2 59.2C557 61.7 600 70.3 642.8 70.8C685.7 71.3 728.3 63.7 771.2 61.5C814 59.3 857 62.7 878.5 64.3L900 66L900 57L878.5 55.8C857 54.7 814 52.3 771.2 54.5C728.3 56.7 685.7 63.3 642.8 62.7C600 62 557 54 514.2 52C471.3 50 428.7 54 385.8 56.5C343 59 300 60 257.2 59.8C214.3 59.7 171.7 58.3 128.8 57.2C86 56 43 55 21.5 54.5L0 54Z" fill="#63666f"></path><path d="M0 75L21.5 75.7C43 76.3 86 77.7 128.8 79.2C171.7 80.7 214.3 82.3 257.2 82.3C300 82.3 343 80.7 385.8 79.7C428.7 78.7 471.3 78.3 514.2 80.2C557 82 600 86 642.8 87.3C685.7 88.7 728.3 87.3 771.2 87C814 86.7 857 87.3 878.5 87.7L900 88L900 64L878.5 62.3C857 60.7 814 57.3 771.2 59.5C728.3 61.7 685.7 69.3 642.8 68.8C600 68.3 557 59.7 514.2 57.2C471.3 54.7 428.7 58.3 385.8 61.3C343 64.3 300 66.7 257.2 66.8C214.3 67 171.7 65 128.8 63C86 61 43 59 21.5 58L0 57Z" fill="#4c4d56"></path><path d="M0 92L21.5 92.2C43 92.3 86 92.7 128.8 93.5C171.7 94.3 214.3 95.7 257.2 96.3C300 97 343 97 385.8 96.3C428.7 95.7 471.3 94.3 514.2 94.3C557 94.3 600 95.7 642.8 96C685.7 96.3 728.3 95.7 771.2 95.3C814 95 857 95 878.5 95L900 95L900 86L878.5 85.7C857 85.3 814 84.7 771.2 85C728.3 85.3 685.7 86.7 642.8 85.3C600 84 557 80 514.2 78.2C471.3 76.3 428.7 76.7 385.8 77.7C343 78.7 300 80.3 257.2 80.3C214.3 80.3 171.7 78.7 128.8 77.2C86 75.7 43 74.3 21.5 73.7L0 73Z" fill="#35373e"></path><path d="M0 101L21.5 101C43 101 86 101 128.8 101C171.7 101 214.3 101 257.2 101C300 101 343 101 385.8 101C428.7 101 471.3 101 514.2 101C557 101 600 101 642.8 101C685.7 101 728.3 101 771.2 101C814 101 857 101 878.5 101L900 101L900 93L878.5 93C857 93 814 93 771.2 93.3C728.3 93.7 685.7 94.3 642.8 94C600 93.7 557 92.3 514.2 92.3C471.3 92.3 428.7 93.7 385.8 94.3C343 95 300 95 257.2 94.3C214.3 93.7 171.7 92.3 128.8 91.5C86 90.7 43 90.3 21.5 90.2L0 90Z" fill="#202128"></path></svg>