<svg id="visual" viewBox="0 0 900 100" width="900" height="100" xmlns="http://www.w3.org/2000/svg" xmlns:xlink="http://www.w3.org/1999/xlink" version="1.1"><rect x="0" y="0" width="900" height="100" fill="#202128"></rect><path d="M0 71L21.5 71.8C43 72.7 86 74.3 128.8 74.3C171.7 74.3 214.3 72.7 257.2 73.2C300 73.7 343 76.3 385.8 77.7C428.7 79 471.3 79 514.2 78.8C557 78.7 600 78.3 642.8 77.3C685.7 76.3 728.3 74.7 771.2 72.7C814 70.7 857 68.3 878.5 67.2L900 66L900 101L878.5 101C857 101 814 101 771.2 101C728.3 101 685.7 101 642.8 101C600 101 557 101 514.2 101C471.3 101 428.7 101 385.8 101C343 101 300 101 257.2 101C214.3 101 171.7 101 128.8 101C86 101 43 101 21.5 101L0 101Z" fill="#E6EDF8" stroke-linecap="round" stroke-linejoin="miter"></path></svg>