<svg id="visual" viewBox="0 0 900 100" width="900" height="100" xmlns="http://www.w3.org/2000/svg" xmlns:xlink="http://www.w3.org/1999/xlink" version="1.1"><rect x="0" y="0" width="900" height="100" fill="#E6EDF8"></rect><path d="M0 58L11.5 61.3C23 64.7 46 71.3 69 71.7C92 72 115 66 138.2 64.8C161.3 63.7 184.7 67.3 207.8 66C231 64.7 254 58.3 277 58C300 57.7 323 63.3 346 68.8C369 74.3 392 79.7 415.2 78.3C438.3 77 461.7 69 484.8 63.5C508 58 531 55 554 54.8C577 54.7 600 57.3 623 58C646 58.7 669 57.3 692.2 58.3C715.3 59.3 738.7 62.7 761.8 67.3C785 72 808 78 831 80C854 82 877 80 888.5 79L900 78L900 101L888.5 101C877 101 854 101 831 101C808 101 785 101 761.8 101C738.7 101 715.3 101 692.2 101C669 101 646 101 623 101C600 101 577 101 554 101C531 101 508 101 484.8 101C461.7 101 438.3 101 415.2 101C392 101 369 101 346 101C323 101 300 101 277 101C254 101 231 101 207.8 101C184.7 101 161.3 101 138.2 101C115 101 92 101 69 101C46 101 23 101 11.5 101L0 101Z" fill="#202128" stroke-linecap="round" stroke-linejoin="miter"></path></svg>