<svg id="visual" viewBox="0 0 900 100" width="900" height="100" xmlns="http://www.w3.org/2000/svg" xmlns:xlink="http://www.w3.org/1999/xlink" version="1.1"><rect x="0" y="0" width="900" height="100" fill="#202128"></rect><path d="M0 51L16.7 51.8C33.3 52.7 66.7 54.3 100 53.2C133.3 52 166.7 48 200 45.2C233.3 42.3 266.7 40.7 300 43.3C333.3 46 366.7 53 400 56.8C433.3 60.7 466.7 61.3 500 59.5C533.3 57.7 566.7 53.3 600 50.5C633.3 47.7 666.7 46.3 700 45.8C733.3 45.3 766.7 45.7 800 48C833.3 50.3 866.7 54.7 883.3 56.8L900 59L900 101L883.3 101C866.7 101 833.3 101 800 101C766.7 101 733.3 101 700 101C666.7 101 633.3 101 600 101C566.7 101 533.3 101 500 101C466.7 101 433.3 101 400 101C366.7 101 333.3 101 300 101C266.7 101 233.3 101 200 101C166.7 101 133.3 101 100 101C66.7 101 33.3 101 16.7 101L0 101Z" fill="#E6EDF8" stroke-linecap="round" stroke-linejoin="miter"></path></svg>