<svg id="visual" viewBox="0 0 900 100" width="900" height="100" xmlns="http://www.w3.org/2000/svg" xmlns:xlink="http://www.w3.org/1999/xlink" version="1.1"><rect x="0" y="0" width="900" height="100" fill="#E6EDF8"></rect><path d="M0 79L15 78.2C30 77.3 60 75.7 90 72.8C120 70 150 66 180 67C210 68 240 74 270 73.3C300 72.7 330 65.3 360 62.8C390 60.3 420 62.7 450 62.2C480 61.7 510 58.3 540 61.5C570 64.7 600 74.3 630 77.2C660 80 690 76 720 73.8C750 71.7 780 71.3 810 72.2C840 73 870 75 885 76L900 77L900 101L885 101C870 101 840 101 810 101C780 101 750 101 720 101C690 101 660 101 630 101C600 101 570 101 540 101C510 101 480 101 450 101C420 101 390 101 360 101C330 101 300 101 270 101C240 101 210 101 180 101C150 101 120 101 90 101C60 101 30 101 15 101L0 101Z" fill="#202128" stroke-linecap="round" stroke-linejoin="miter"></path></svg>