<svg id="visual" viewBox="0 0 900 100" width="900" height="100" xmlns="http://www.w3.org/2000/svg" xmlns:xlink="http://www.w3.org/1999/xlink" version="1.1"><rect x="0" y="0" width="900" height="100" fill="#E6EDF8"></rect><path d="M0 44L13.7 44.5C27.3 45 54.7 46 82 50.3C109.3 54.7 136.7 62.3 163.8 66.7C191 71 218 72 245.2 69.8C272.3 67.7 299.7 62.3 327 57.5C354.3 52.7 381.7 48.3 409 47C436.3 45.7 463.7 47.3 491 50.3C518.3 53.3 545.7 57.7 573 58.8C600.3 60 627.7 58 654.8 60.7C682 63.3 709 70.7 736.2 72.8C763.3 75 790.7 72 818 72.3C845.3 72.7 872.7 76.3 886.3 78.2L900 80L900 101L886.3 101C872.7 101 845.3 101 818 101C790.7 101 763.3 101 736.2 101C709 101 682 101 654.8 101C627.7 101 600.3 101 573 101C545.7 101 518.3 101 491 101C463.7 101 436.3 101 409 101C381.7 101 354.3 101 327 101C299.7 101 272.3 101 245.2 101C218 101 191 101 163.8 101C136.7 101 109.3 101 82 101C54.7 101 27.3 101 13.7 101L0 101Z" fill="#202128" stroke-linecap="round" stroke-linejoin="miter"></path></svg>